<svg xmlns="http://www.w3.org/2000/svg" xmlns:xlink="http://www.w3.org/1999/xlink" width="567" zoomAndPan="magnify" viewBox="0 0 425.25 283.500005" height="378" preserveAspectRatio="xMidYMid meet" version="1.2"><defs/><g id="590f21d0f7"><g style="fill:#ffffff;fill-opacity:1;"><g transform="translate(36.809862, 153.093772)"><path style="stroke:none" d="M 18.703125 -2.359375 C 16.535156 -2.441406 14.335938 -2.257812 12.109375 -1.8125 C 9.890625 -1.363281 7.71875 -0.78125 5.59375 -0.0625 L 5.46875 0.3125 C 4.664062 2.007812 3.539062 3.546875 2.09375 4.921875 C 0.65625 6.304688 -0.828125 7.550781 -2.359375 8.65625 C -2.910156 9.03125 -3.628906 9.460938 -4.515625 9.953125 C -5.410156 10.441406 -6.351562 10.894531 -7.34375 11.3125 C -8.34375 11.738281 -9.273438 12.023438 -10.140625 12.171875 C -11.015625 12.328125 -11.726562 12.234375 -12.28125 11.890625 C -13.082031 11.378906 -13.546875 10.65625 -13.671875 9.71875 C -13.804688 8.789062 -13.597656 7.863281 -13.046875 6.9375 C -12.066406 5.488281 -10.75 4.253906 -9.09375 3.234375 C -7.445312 2.222656 -5.921875 1.316406 -4.515625 0.515625 C -3.585938 0.046875 -2.695312 -0.421875 -1.84375 -0.890625 C -1 -1.359375 -0.046875 -1.800781 1.015625 -2.21875 C 0.847656 -2.394531 0.425781 -2.503906 -0.25 -2.546875 C -1.019531 -2.671875 -1.53125 -3.039062 -1.78125 -3.65625 C -2.039062 -4.269531 -2.039062 -4.90625 -1.78125 -5.5625 C -1.53125 -6.21875 -1.019531 -6.695312 -0.25 -7 C 0.34375 -7.207031 1.039062 -7.226562 1.84375 -7.0625 C 2.644531 -6.894531 3.363281 -6.597656 4 -6.171875 C 4.8125 -5.617188 5.363281 -4.960938 5.65625 -4.203125 L 7.1875 -4.765625 C 10.582031 -5.992188 14.164062 -6.738281 17.9375 -7 C 19 -7.082031 19.804688 -6.878906 20.359375 -6.390625 C 20.910156 -5.898438 21.21875 -5.335938 21.28125 -4.703125 C 21.34375 -4.066406 21.160156 -3.503906 20.734375 -3.015625 C 20.304688 -2.535156 19.628906 -2.316406 18.703125 -2.359375 Z M -8.90625 8.453125 C -8.3125 7.773438 -7.546875 7.035156 -6.609375 6.234375 C -5.679688 5.429688 -4.941406 4.816406 -4.390625 4.390625 C -3.878906 4.003906 -3.335938 3.640625 -2.765625 3.296875 C -2.191406 2.960938 -1.503906 2.773438 -0.703125 2.734375 C -2.273438 3.535156 -3.789062 4.425781 -5.25 5.40625 C -6.707031 6.382812 -7.925781 7.398438 -8.90625 8.453125 Z M -0.3125 -18.1875 C 0.0195312 -19.457031 0.726562 -20.378906 1.8125 -20.953125 C 2.894531 -21.523438 4.15625 -21.863281 5.59375 -21.96875 C 7.039062 -22.082031 8.503906 -22.070312 9.984375 -21.9375 C 10.703125 -21.894531 11.613281 -21.757812 12.71875 -21.53125 C 13.820312 -21.300781 14.804688 -20.953125 15.671875 -20.484375 C 16.546875 -20.015625 17.023438 -19.359375 17.109375 -18.515625 C 17.191406 -17.535156 17.03125 -16.875 16.625 -16.53125 C 16.226562 -16.195312 15.476562 -16.113281 14.375 -16.28125 C 14.25 -15.476562 13.910156 -14.84375 13.359375 -14.375 C 12.722656 -13.738281 11.789062 -13.257812 10.5625 -12.9375 C 9.332031 -12.625 8.023438 -12.488281 6.640625 -12.53125 C 5.265625 -12.570312 3.992188 -12.800781 2.828125 -13.21875 C 1.660156 -13.644531 0.757812 -14.269531 0.125 -15.09375 C -0.507812 -15.925781 -0.65625 -16.957031 -0.3125 -18.1875 Z M 4.328125 -17.359375 C 4.578125 -17.023438 5.15625 -16.78125 6.0625 -16.625 C 6.976562 -16.476562 7.910156 -16.457031 8.859375 -16.5625 C 9.816406 -16.675781 10.488281 -16.898438 10.875 -17.234375 C 10.875 -17.234375 10.875 -17.242188 10.875 -17.265625 C 10.875 -17.285156 10.832031 -17.316406 10.75 -17.359375 C 10.238281 -17.492188 9.554688 -17.625 8.703125 -17.75 C 7.859375 -17.875 7.03125 -17.914062 6.21875 -17.875 C 5.414062 -17.832031 4.765625 -17.617188 4.265625 -17.234375 C 4.085938 -17.148438 4.007812 -17.203125 4.03125 -17.390625 C 4.050781 -17.585938 4.148438 -17.578125 4.328125 -17.359375 Z M 4.328125 -17.359375 "/></g></g><g style="fill:#ffffff;fill-opacity:1;"><g transform="translate(55.191939, 153.093772)"><path style="stroke:none" d="M 29.953125 -2.421875 C 29.023438 -2.378906 28.09375 -2.238281 27.15625 -2 C 26.226562 -1.769531 25.273438 -1.546875 24.296875 -1.328125 C 21.796875 -0.785156 19.269531 -0.226562 16.71875 0.34375 C 14.175781 0.914062 11.613281 1.332031 9.03125 1.59375 C 7.632812 1.757812 6.128906 1.800781 4.515625 1.71875 C 2.898438 1.632812 1.476562 1.082031 0.25 0.0625 C -0.9375 -0.914062 -1.5625 -2.0625 -1.625 -3.375 C -1.6875 -4.6875 -1.25 -5.8125 -0.3125 -6.75 C 0.226562 -7.25 0.988281 -7.632812 1.96875 -7.90625 C 2.945312 -8.1875 3.984375 -8.328125 5.078125 -8.328125 C 6.179688 -8.328125 7.175781 -8.175781 8.0625 -7.875 C 8.957031 -7.582031 9.609375 -7.128906 10.015625 -6.515625 C 10.421875 -5.898438 10.390625 -5.109375 9.921875 -4.140625 C 9.710938 -3.671875 9.457031 -3.328125 9.15625 -3.109375 C 6.863281 -3.109375 5.304688 -3.097656 4.484375 -3.078125 C 3.660156 -3.054688 3.320312 -3.035156 3.46875 -3.015625 C 3.613281 -2.992188 3.992188 -2.972656 4.609375 -2.953125 C 5.222656 -2.929688 5.867188 -2.921875 6.546875 -2.921875 C 7.222656 -2.921875 7.671875 -2.941406 7.890625 -2.984375 C 9.960938 -3.160156 12.015625 -3.457031 14.046875 -3.875 C 16.085938 -4.300781 18.125 -4.726562 20.15625 -5.15625 C 21.644531 -5.488281 23.117188 -5.847656 24.578125 -6.234375 C 26.046875 -6.617188 27.539062 -6.894531 29.0625 -7.0625 C 30.039062 -7.1875 30.804688 -7.023438 31.359375 -6.578125 C 31.910156 -6.140625 32.238281 -5.597656 32.34375 -4.953125 C 32.445312 -4.316406 32.304688 -3.742188 31.921875 -3.234375 C 31.546875 -2.734375 30.890625 -2.460938 29.953125 -2.421875 Z M 29.953125 -2.421875 "/></g></g><g style="fill:#ffffff;fill-opacity:1;"><g transform="translate(84.832233, 153.093772)"><path style="stroke:none" d="M -1.078125 -3.046875 C -1.753906 -3.773438 -2.0625 -4.46875 -2 -5.125 C -1.9375 -5.78125 -1.660156 -6.316406 -1.171875 -6.734375 C -0.691406 -7.160156 -0.125 -7.375 0.53125 -7.375 C 1.195312 -7.375 1.800781 -7.078125 2.34375 -6.484375 C 2.8125 -5.929688 3.445312 -5.59375 4.25 -5.46875 C 5.0625 -5.34375 5.890625 -5.257812 6.734375 -5.21875 C 7.585938 -5.175781 8.382812 -5.066406 9.125 -4.890625 C 9.863281 -4.722656 10.40625 -4.34375 10.75 -3.75 C 12.3125 -4.21875 13.878906 -4.628906 15.453125 -4.984375 C 17.023438 -5.347656 18.425781 -5.660156 19.65625 -5.921875 C 20.5 -6.085938 21.585938 -6.273438 22.921875 -6.484375 C 24.265625 -6.703125 25.570312 -6.875 26.84375 -7 C 28.113281 -7.125 29.046875 -7.101562 29.640625 -6.9375 C 30.742188 -6.71875 31.378906 -6.117188 31.546875 -5.140625 C 31.710938 -4.171875 31.351562 -3.390625 30.46875 -2.796875 C 29.957031 -2.460938 29.382812 -2.316406 28.75 -2.359375 C 28.113281 -2.398438 27.265625 -2.351562 26.203125 -2.21875 C 23.398438 -1.882812 20.628906 -1.410156 17.890625 -0.796875 C 15.160156 -0.179688 12.460938 0.59375 9.796875 1.53125 C 9.203125 1.695312 8.394531 1.925781 7.375 2.21875 C 6.351562 2.519531 5.382812 2.703125 4.46875 2.765625 C 3.5625 2.828125 2.984375 2.625 2.734375 2.15625 C 2.347656 1.476562 2.257812 0.820312 2.46875 0.1875 C 2.6875 -0.445312 3.09375 -0.976562 3.6875 -1.40625 C 2.882812 -1.445312 2.035156 -1.570312 1.140625 -1.78125 C 0.253906 -1.988281 -0.484375 -2.410156 -1.078125 -3.046875 Z M -1.078125 -3.046875 "/></g></g><g style="fill:#ffffff;fill-opacity:1;"><g transform="translate(113.645648, 153.093772)"><path style="stroke:none" d="M -1.078125 -3.046875 C -1.753906 -3.773438 -2.0625 -4.46875 -2 -5.125 C -1.9375 -5.78125 -1.660156 -6.316406 -1.171875 -6.734375 C -0.691406 -7.160156 -0.125 -7.375 0.53125 -7.375 C 1.195312 -7.375 1.800781 -7.078125 2.34375 -6.484375 C 2.8125 -5.929688 3.445312 -5.59375 4.25 -5.46875 C 5.0625 -5.34375 5.890625 -5.257812 6.734375 -5.21875 C 7.585938 -5.175781 8.382812 -5.066406 9.125 -4.890625 C 9.863281 -4.722656 10.40625 -4.34375 10.75 -3.75 C 12.3125 -4.21875 13.878906 -4.628906 15.453125 -4.984375 C 17.023438 -5.347656 18.425781 -5.660156 19.65625 -5.921875 C 20.5 -6.085938 21.585938 -6.273438 22.921875 -6.484375 C 24.265625 -6.703125 25.570312 -6.875 26.84375 -7 C 28.113281 -7.125 29.046875 -7.101562 29.640625 -6.9375 C 30.742188 -6.71875 31.378906 -6.117188 31.546875 -5.140625 C 31.710938 -4.171875 31.351562 -3.390625 30.46875 -2.796875 C 29.957031 -2.460938 29.382812 -2.316406 28.75 -2.359375 C 28.113281 -2.398438 27.265625 -2.351562 26.203125 -2.21875 C 23.398438 -1.882812 20.628906 -1.410156 17.890625 -0.796875 C 15.160156 -0.179688 12.460938 0.59375 9.796875 1.53125 C 9.203125 1.695312 8.394531 1.925781 7.375 2.21875 C 6.351562 2.519531 5.382812 2.703125 4.46875 2.765625 C 3.5625 2.828125 2.984375 2.625 2.734375 2.15625 C 2.347656 1.476562 2.257812 0.820312 2.46875 0.1875 C 2.6875 -0.445312 3.09375 -0.976562 3.6875 -1.40625 C 2.882812 -1.445312 2.035156 -1.570312 1.140625 -1.78125 C 0.253906 -1.988281 -0.484375 -2.410156 -1.078125 -3.046875 Z M -1.078125 -3.046875 "/></g></g><g style="fill:#ffffff;fill-opacity:1;"><g transform="translate(142.459064, 153.093772)"><path style="stroke:none" d="M 29.953125 -2.421875 C 29.023438 -2.378906 28.09375 -2.238281 27.15625 -2 C 26.226562 -1.769531 25.273438 -1.546875 24.296875 -1.328125 C 21.796875 -0.785156 19.269531 -0.226562 16.71875 0.34375 C 14.175781 0.914062 11.613281 1.332031 9.03125 1.59375 C 7.632812 1.757812 6.128906 1.800781 4.515625 1.71875 C 2.898438 1.632812 1.476562 1.082031 0.25 0.0625 C -0.9375 -0.914062 -1.5625 -2.0625 -1.625 -3.375 C -1.6875 -4.6875 -1.25 -5.8125 -0.3125 -6.75 C 0.226562 -7.25 0.988281 -7.632812 1.96875 -7.90625 C 2.945312 -8.1875 3.984375 -8.328125 5.078125 -8.328125 C 6.179688 -8.328125 7.175781 -8.175781 8.0625 -7.875 C 8.957031 -7.582031 9.609375 -7.128906 10.015625 -6.515625 C 10.421875 -5.898438 10.390625 -5.109375 9.921875 -4.140625 C 9.710938 -3.671875 9.457031 -3.328125 9.15625 -3.109375 C 6.863281 -3.109375 5.304688 -3.097656 4.484375 -3.078125 C 3.660156 -3.054688 3.320312 -3.035156 3.46875 -3.015625 C 3.613281 -2.992188 3.992188 -2.972656 4.609375 -2.953125 C 5.222656 -2.929688 5.867188 -2.921875 6.546875 -2.921875 C 7.222656 -2.921875 7.671875 -2.941406 7.890625 -2.984375 C 9.960938 -3.160156 12.015625 -3.457031 14.046875 -3.875 C 16.085938 -4.300781 18.125 -4.726562 20.15625 -5.15625 C 21.644531 -5.488281 23.117188 -5.847656 24.578125 -6.234375 C 26.046875 -6.617188 27.539062 -6.894531 29.0625 -7.0625 C 30.039062 -7.1875 30.804688 -7.023438 31.359375 -6.578125 C 31.910156 -6.140625 32.238281 -5.597656 32.34375 -4.953125 C 32.445312 -4.316406 32.304688 -3.742188 31.921875 -3.234375 C 31.546875 -2.734375 30.890625 -2.460938 29.953125 -2.421875 Z M 29.953125 -2.421875 "/></g></g><g style="fill:#ffffff;fill-opacity:1;"><g transform="translate(172.099357, 153.093772)"><path style="stroke:none" d="M 32.3125 -23.21875 C 30.40625 -21.644531 28.492188 -20.007812 26.578125 -18.3125 C 24.671875 -16.625 22.828125 -14.910156 21.046875 -13.171875 C 19.429688 -11.597656 17.722656 -9.953125 15.921875 -8.234375 C 14.117188 -6.515625 12.671875 -4.703125 11.578125 -2.796875 C 12.804688 -3.179688 14.023438 -3.671875 15.234375 -4.265625 C 16.441406 -4.859375 17.679688 -5.363281 18.953125 -5.78125 C 19.835938 -6.082031 20.710938 -6.359375 21.578125 -6.609375 C 22.453125 -6.867188 23.359375 -7.019531 24.296875 -7.0625 C 25.648438 -7.1875 26.601562 -6.84375 27.15625 -6.03125 C 27.707031 -5.226562 27.6875 -4.363281 27.09375 -3.4375 C 26.925781 -3.132812 26.382812 -2.867188 25.46875 -2.640625 C 24.5625 -2.410156 23.875 -2.226562 23.40625 -2.09375 C 22.257812 -1.925781 21.15625 -1.628906 20.09375 -1.203125 C 19.03125 -0.785156 17.945312 -0.34375 16.84375 0.125 C 15.75 0.550781 14.539062 1.039062 13.21875 1.59375 C 11.90625 2.144531 10.550781 2.398438 9.15625 2.359375 C 6.65625 2.222656 5.550781 1.160156 5.84375 -0.828125 C 4.570312 -0.273438 3.28125 0.195312 1.96875 0.59375 C 0.65625 1 -0.679688 1.242188 -2.046875 1.328125 C -2.722656 1.328125 -3.269531 1.265625 -3.6875 1.140625 C -4.113281 1.015625 -4.5 0.757812 -4.84375 0.375 C -5.601562 -0.382812 -5.863281 -1.175781 -5.625 -2 C -5.394531 -2.832031 -4.878906 -3.628906 -4.078125 -4.390625 C -3.273438 -5.148438 -2.40625 -5.765625 -1.46875 -6.234375 C 0.0078125 -6.992188 1.691406 -7.46875 3.578125 -7.65625 C 5.472656 -7.851562 7.3125 -7.695312 9.09375 -7.1875 C 10.195312 -8.625 11.601562 -10.210938 13.3125 -11.953125 C 15.03125 -13.691406 16.90625 -15.523438 18.9375 -17.453125 C 20.976562 -19.390625 23.039062 -21.3125 25.125 -23.21875 C 25.71875 -23.769531 26.519531 -24.46875 27.53125 -25.3125 C 28.550781 -26.164062 29.460938 -26.71875 30.265625 -26.96875 C 31.117188 -27.3125 31.820312 -27.269531 32.375 -26.84375 C 32.925781 -26.414062 33.234375 -25.84375 33.296875 -25.125 C 33.359375 -24.40625 33.03125 -23.769531 32.3125 -23.21875 Z M -0.265625 -2.671875 C 0.078125 -3.015625 0.617188 -3.34375 1.359375 -3.65625 C 2.097656 -3.976562 2.9375 -4.285156 3.875 -4.578125 C 3.832031 -3.816406 3.734375 -3.367188 3.578125 -3.234375 C 3.429688 -3.109375 3.296875 -3.023438 3.171875 -2.984375 C 2.535156 -2.941406 1.910156 -2.859375 1.296875 -2.734375 C 0.679688 -2.609375 0.160156 -2.585938 -0.265625 -2.671875 Z M -0.265625 -2.671875 "/></g></g><g style="fill:#ffffff;fill-opacity:1;"><g transform="translate(196.651199, 153.093772)"><path style="stroke:none" d="M 9.15625 -7.0625 C 9.664062 -7.019531 10.128906 -6.742188 10.546875 -6.234375 C 10.972656 -6.316406 11.375 -6.347656 11.75 -6.328125 C 12.132812 -6.304688 12.539062 -6.191406 12.96875 -5.984375 C 13.519531 -5.679688 13.921875 -5.304688 14.171875 -4.859375 C 14.429688 -4.421875 14.453125 -3.796875 14.234375 -2.984375 C 15.929688 -3.328125 17.640625 -3.898438 19.359375 -4.703125 C 21.078125 -5.515625 22.785156 -6.148438 24.484375 -6.609375 C 25.203125 -6.828125 25.816406 -6.976562 26.328125 -7.0625 C 26.835938 -7.144531 27.367188 -7.015625 27.921875 -6.671875 C 28.890625 -5.953125 29.222656 -5.101562 28.921875 -4.125 C 28.628906 -3.15625 27.867188 -2.566406 26.640625 -2.359375 C 25.367188 -2.179688 24.085938 -1.804688 22.796875 -1.234375 C 21.503906 -0.660156 20.203125 -0.144531 18.890625 0.3125 C 18.078125 0.570312 17.179688 0.867188 16.203125 1.203125 C 15.234375 1.546875 14.238281 1.78125 13.21875 1.90625 C 12.207031 2.03125 11.234375 1.925781 10.296875 1.59375 C 8.941406 1.039062 8.328125 0.148438 8.453125 -1.078125 C 7.097656 -0.742188 5.6875 -0.320312 4.21875 0.1875 C 2.757812 0.695312 1.414062 1.078125 0.1875 1.328125 C -2.101562 1.710938 -3.628906 1.1875 -4.390625 -0.25 C -5.023438 -1.519531 -5.054688 -2.675781 -4.484375 -3.71875 C -3.921875 -4.757812 -2.957031 -5.640625 -1.59375 -6.359375 C -0.238281 -7.078125 1.265625 -7.523438 2.921875 -7.703125 C 5.171875 -7.910156 7.25 -7.695312 9.15625 -7.0625 Z M 0.1875 -2.734375 C 0.5625 -3.078125 1.171875 -3.40625 2.015625 -3.71875 C 2.867188 -4.039062 3.867188 -4.367188 5.015625 -4.703125 C 4.804688 -3.941406 4.550781 -3.484375 4.25 -3.328125 C 3.957031 -3.179688 3.640625 -3.066406 3.296875 -2.984375 C 2.703125 -2.941406 2.128906 -2.867188 1.578125 -2.765625 C 1.023438 -2.660156 0.5625 -2.648438 0.1875 -2.734375 Z M 0.1875 -2.734375 "/></g></g><g style="fill:#ffffff;fill-opacity:1;"><g transform="translate(222.729578, 153.093772)"><path style="stroke:none" d="M 0.25 -7.0625 C 1.226562 -7.0625 1.953125 -6.765625 2.421875 -6.171875 C 3.054688 -5.410156 3.285156 -4.710938 3.109375 -4.078125 C 4.046875 -4.285156 4.976562 -4.503906 5.90625 -4.734375 C 6.84375 -4.972656 7.78125 -5.21875 8.71875 -5.46875 C 9.476562 -5.675781 10.332031 -5.894531 11.28125 -6.125 C 12.238281 -6.363281 13.171875 -6.492188 14.078125 -6.515625 C 14.992188 -6.535156 15.75 -6.316406 16.34375 -5.859375 C 17.28125 -5.171875 17.679688 -4.34375 17.546875 -3.375 C 17.972656 -3.539062 18.429688 -3.695312 18.921875 -3.84375 C 19.410156 -4 19.890625 -4.160156 20.359375 -4.328125 C 21.546875 -4.660156 22.707031 -5.019531 23.84375 -5.40625 C 24.988281 -5.789062 26.15625 -6.128906 27.34375 -6.421875 C 28.195312 -6.722656 28.992188 -6.945312 29.734375 -7.09375 C 30.472656 -7.238281 31.140625 -7.078125 31.734375 -6.609375 C 32.410156 -6.148438 32.78125 -5.578125 32.84375 -4.890625 C 32.914062 -4.210938 32.738281 -3.628906 32.3125 -3.140625 C 31.882812 -2.660156 31.269531 -2.398438 30.46875 -2.359375 C 28.894531 -2.222656 27.28125 -1.847656 25.625 -1.234375 C 23.976562 -0.617188 22.410156 -0.0820312 20.921875 0.375 C 20.285156 0.550781 19.53125 0.785156 18.65625 1.078125 C 17.789062 1.378906 16.898438 1.59375 15.984375 1.71875 C 15.078125 1.84375 14.242188 1.757812 13.484375 1.46875 C 12.847656 1.207031 12.398438 0.820312 12.140625 0.3125 C 11.890625 -0.1875 11.785156 -0.757812 11.828125 -1.40625 C 11.023438 -1.269531 10.21875 -1.097656 9.40625 -0.890625 C 8.601562 -0.679688 7.820312 -0.488281 7.0625 -0.3125 C 5.75 0.0195312 4.316406 0.390625 2.765625 0.796875 C 1.210938 1.203125 -0.00390625 1.378906 -0.890625 1.328125 C -1.148438 1.285156 -1.394531 1.222656 -1.625 1.140625 C -1.851562 1.054688 -2.078125 0.972656 -2.296875 0.890625 C -3.054688 0.378906 -3.488281 -0.128906 -3.59375 -0.640625 C -3.695312 -1.148438 -3.578125 -1.6875 -3.234375 -2.25 C -2.898438 -2.820312 -2.5 -3.472656 -2.03125 -4.203125 C -2.207031 -5.046875 -2.070312 -5.734375 -1.625 -6.265625 C -1.175781 -6.796875 -0.550781 -7.0625 0.25 -7.0625 Z M 0.25 -7.0625 "/></g></g><g style="fill:#ffffff;fill-opacity:1;"><g transform="translate(253.069546, 153.093772)"><path style="stroke:none" d="M 0.25 -7.0625 C 1.351562 -7.0625 2.160156 -6.660156 2.671875 -5.859375 C 3.222656 -5.046875 3.265625 -4.21875 2.796875 -3.375 C 4.109375 -3.664062 5.429688 -4.097656 6.765625 -4.671875 C 8.109375 -5.242188 9.351562 -5.722656 10.5 -6.109375 C 11.894531 -6.578125 13.1875 -6.640625 14.375 -6.296875 C 15.5625 -5.953125 16.347656 -5.296875 16.734375 -4.328125 C 18.128906 -4.835938 19.503906 -5.28125 20.859375 -5.65625 C 22.210938 -6.039062 23.675781 -6.378906 25.25 -6.671875 C 25.71875 -6.765625 26.332031 -6.84375 27.09375 -6.90625 C 27.851562 -6.96875 28.582031 -6.988281 29.28125 -6.96875 C 29.988281 -6.945312 30.46875 -6.828125 30.71875 -6.609375 C 31.476562 -6.148438 31.878906 -5.578125 31.921875 -4.890625 C 31.972656 -4.210938 31.753906 -3.628906 31.265625 -3.140625 C 30.773438 -2.660156 30.082031 -2.441406 29.1875 -2.484375 C 26.988281 -2.566406 24.773438 -2.363281 22.546875 -1.875 C 20.316406 -1.382812 18.144531 -0.78125 16.03125 -0.0625 C 15.21875 1.507812 14.125 2.953125 12.75 4.265625 C 11.375 5.578125 10.175781 6.675781 9.15625 7.5625 C 8.644531 7.945312 7.890625 8.457031 6.890625 9.09375 C 5.898438 9.726562 4.832031 10.320312 3.6875 10.875 C 2.539062 11.425781 1.457031 11.816406 0.4375 12.046875 C -0.570312 12.285156 -1.375 12.210938 -1.96875 11.828125 C -3.070312 11.023438 -3.59375 10.15625 -3.53125 9.21875 C -3.46875 8.289062 -3 7.328125 -2.125 6.328125 C -1.257812 5.328125 -0.160156 4.359375 1.171875 3.421875 C 2.503906 2.492188 3.878906 1.628906 5.296875 0.828125 C 6.722656 0.0234375 8.019531 -0.660156 9.1875 -1.234375 C 10.351562 -1.804688 11.210938 -2.203125 11.765625 -2.421875 L 12.34375 -2.671875 C 12.382812 -2.796875 12.664062 -2.953125 13.1875 -3.140625 C 13.71875 -3.335938 14.28125 -3.488281 14.875 -3.59375 C 15.46875 -3.695312 15.859375 -3.738281 16.046875 -3.71875 C 16.242188 -3.695312 16.054688 -3.523438 15.484375 -3.203125 C 14.910156 -2.890625 13.691406 -2.394531 11.828125 -1.71875 C 11.148438 -1.507812 10.28125 -1.203125 9.21875 -0.796875 C 8.15625 -0.390625 7.019531 0 5.8125 0.375 C 4.601562 0.757812 3.4375 1.054688 2.3125 1.265625 C 1.195312 1.484375 0.210938 1.53125 -0.640625 1.40625 C -2.253906 1.0625 -3.132812 0.359375 -3.28125 -0.703125 C -3.425781 -1.765625 -2.988281 -3.078125 -1.96875 -4.640625 C -2.007812 -5.234375 -1.847656 -5.773438 -1.484375 -6.265625 C -1.128906 -6.753906 -0.550781 -7.019531 0.25 -7.0625 Z M 0.5 7.765625 C 1.601562 7.378906 2.707031 6.726562 3.8125 5.8125 C 4.914062 4.90625 5.957031 4.09375 6.9375 3.375 C 7.226562 3.113281 7.550781 2.910156 7.90625 2.765625 C 8.269531 2.617188 8.75 2.671875 9.34375 2.921875 C 9.007812 3.003906 8.671875 3.140625 8.328125 3.328125 C 7.992188 3.523438 7.613281 3.75 7.1875 4 C 6.84375 4.175781 6.222656 4.515625 5.328125 5.015625 C 4.441406 5.523438 3.53125 6.046875 2.59375 6.578125 C 1.664062 7.109375 0.96875 7.503906 0.5 7.765625 Z M 0.5 7.765625 "/></g></g><g style="fill:#ffffff;fill-opacity:1;"><g transform="translate(282.328217, 153.093772)"><path style="stroke:none" d="M 0.3125 -7.0625 C 1.414062 -7.0625 2.222656 -6.660156 2.734375 -5.859375 C 3.203125 -5.171875 3.328125 -4.507812 3.109375 -3.875 C 4.335938 -4.175781 5.628906 -4.535156 6.984375 -4.953125 C 8.347656 -5.378906 9.5625 -5.742188 10.625 -6.046875 C 11.550781 -6.253906 12.425781 -6.316406 13.25 -6.234375 C 14.082031 -6.148438 14.644531 -5.660156 14.9375 -4.765625 C 15.03125 -4.554688 15.078125 -4.351562 15.078125 -4.15625 C 15.078125 -3.96875 15.078125 -3.789062 15.078125 -3.625 L 17.546875 -4.390625 C 18.734375 -4.722656 19.910156 -5.050781 21.078125 -5.375 C 22.242188 -5.695312 23.398438 -6.003906 24.546875 -6.296875 C 25.484375 -6.597656 26.4375 -6.820312 27.40625 -6.96875 C 28.382812 -7.113281 29.191406 -6.953125 29.828125 -6.484375 C 30.503906 -6.015625 30.882812 -5.460938 30.96875 -4.828125 C 31.050781 -4.191406 30.867188 -3.628906 30.421875 -3.140625 C 29.984375 -2.660156 29.34375 -2.398438 28.5 -2.359375 C 27.351562 -2.265625 25.992188 -2.003906 24.421875 -1.578125 C 22.847656 -1.160156 21.253906 -0.695312 19.640625 -0.1875 C 18.035156 0.320312 16.53125 0.773438 15.125 1.171875 C 13.726562 1.578125 12.609375 1.78125 11.765625 1.78125 C 10.960938 1.78125 10.335938 1.554688 9.890625 1.109375 C 9.441406 0.660156 9.21875 0.078125 9.21875 -0.640625 C 7.5625 -0.128906 5.863281 0.335938 4.125 0.765625 C 2.382812 1.191406 1.03125 1.359375 0.0625 1.265625 C -1.675781 1.054688 -2.671875 0.410156 -2.921875 -0.671875 C -3.179688 -1.753906 -2.84375 -3.078125 -1.90625 -4.640625 C -1.945312 -5.234375 -1.785156 -5.773438 -1.421875 -6.265625 C -1.066406 -6.753906 -0.488281 -7.019531 0.3125 -7.0625 Z M 0.3125 -7.0625 "/></g></g><g style="fill:#ffffff;fill-opacity:1;"><g transform="translate(310.441958, 153.093772)"><path style="stroke:none" d="M -1.078125 -3.046875 C -1.753906 -3.773438 -2.0625 -4.46875 -2 -5.125 C -1.9375 -5.78125 -1.660156 -6.316406 -1.171875 -6.734375 C -0.691406 -7.160156 -0.125 -7.375 0.53125 -7.375 C 1.195312 -7.375 1.800781 -7.078125 2.34375 -6.484375 C 2.8125 -5.929688 3.445312 -5.59375 4.25 -5.46875 C 5.0625 -5.34375 5.890625 -5.257812 6.734375 -5.21875 C 7.585938 -5.175781 8.382812 -5.066406 9.125 -4.890625 C 9.863281 -4.722656 10.40625 -4.34375 10.75 -3.75 C 12.3125 -4.21875 13.878906 -4.628906 15.453125 -4.984375 C 17.023438 -5.347656 18.425781 -5.660156 19.65625 -5.921875 C 20.5 -6.085938 21.585938 -6.273438 22.921875 -6.484375 C 24.265625 -6.703125 25.570312 -6.875 26.84375 -7 C 28.113281 -7.125 29.046875 -7.101562 29.640625 -6.9375 C 30.742188 -6.71875 31.378906 -6.117188 31.546875 -5.140625 C 31.710938 -4.171875 31.351562 -3.390625 30.46875 -2.796875 C 29.957031 -2.460938 29.382812 -2.316406 28.75 -2.359375 C 28.113281 -2.398438 27.265625 -2.351562 26.203125 -2.21875 C 23.398438 -1.882812 20.628906 -1.410156 17.890625 -0.796875 C 15.160156 -0.179688 12.460938 0.59375 9.796875 1.53125 C 9.203125 1.695312 8.394531 1.925781 7.375 2.21875 C 6.351562 2.519531 5.382812 2.703125 4.46875 2.765625 C 3.5625 2.828125 2.984375 2.625 2.734375 2.15625 C 2.347656 1.476562 2.257812 0.820312 2.46875 0.1875 C 2.6875 -0.445312 3.09375 -0.976562 3.6875 -1.40625 C 2.882812 -1.445312 2.035156 -1.570312 1.140625 -1.78125 C 0.253906 -1.988281 -0.484375 -2.410156 -1.078125 -3.046875 Z M -1.078125 -3.046875 "/></g></g><g style="fill:#ffffff;fill-opacity:1;"><g transform="translate(339.255373, 153.093772)"><path style="stroke:none" d="M 0.3125 -7.0625 C 1.414062 -7.0625 2.222656 -6.660156 2.734375 -5.859375 C 3.203125 -5.171875 3.328125 -4.507812 3.109375 -3.875 C 4.335938 -4.175781 5.628906 -4.535156 6.984375 -4.953125 C 8.347656 -5.378906 9.5625 -5.742188 10.625 -6.046875 C 11.550781 -6.253906 12.425781 -6.316406 13.25 -6.234375 C 14.082031 -6.148438 14.644531 -5.660156 14.9375 -4.765625 C 15.03125 -4.554688 15.078125 -4.351562 15.078125 -4.15625 C 15.078125 -3.96875 15.078125 -3.789062 15.078125 -3.625 L 17.546875 -4.390625 C 18.734375 -4.722656 19.910156 -5.050781 21.078125 -5.375 C 22.242188 -5.695312 23.398438 -6.003906 24.546875 -6.296875 C 25.484375 -6.597656 26.4375 -6.820312 27.40625 -6.96875 C 28.382812 -7.113281 29.191406 -6.953125 29.828125 -6.484375 C 30.503906 -6.015625 30.882812 -5.460938 30.96875 -4.828125 C 31.050781 -4.191406 30.867188 -3.628906 30.421875 -3.140625 C 29.984375 -2.660156 29.34375 -2.398438 28.5 -2.359375 C 27.351562 -2.265625 25.992188 -2.003906 24.421875 -1.578125 C 22.847656 -1.160156 21.253906 -0.695312 19.640625 -0.1875 C 18.035156 0.320312 16.53125 0.773438 15.125 1.171875 C 13.726562 1.578125 12.609375 1.78125 11.765625 1.78125 C 10.960938 1.78125 10.335938 1.554688 9.890625 1.109375 C 9.441406 0.660156 9.21875 0.078125 9.21875 -0.640625 C 7.5625 -0.128906 5.863281 0.335938 4.125 0.765625 C 2.382812 1.191406 1.03125 1.359375 0.0625 1.265625 C -1.675781 1.054688 -2.671875 0.410156 -2.921875 -0.671875 C -3.179688 -1.753906 -2.84375 -3.078125 -1.90625 -4.640625 C -1.945312 -5.234375 -1.785156 -5.773438 -1.421875 -6.265625 C -1.066406 -6.753906 -0.488281 -7.019531 0.3125 -7.0625 Z M 0.3125 -7.0625 "/></g></g><g style="fill:#ffffff;fill-opacity:1;"><g transform="translate(367.369145, 153.093772)"><path style="stroke:none" d="M 19.453125 -20.859375 C 17.117188 -19.160156 14.9375 -17.238281 12.90625 -15.09375 C 10.875 -12.957031 8.945312 -10.789062 7.125 -8.59375 C 4.875 -5.75 2.726562 -2.882812 0.6875 0 C 0.226562 0.632812 -0.179688 1.21875 -0.546875 1.75 C -0.910156 2.28125 -1.238281 2.78125 -1.53125 3.25 C -2.632812 4.09375 -3.363281 4.660156 -3.71875 4.953125 C -4.082031 5.253906 -4.210938 5.375 -4.109375 5.3125 C -4.003906 5.25 -3.789062 5.109375 -3.46875 4.890625 C -3.15625 4.679688 -2.859375 4.476562 -2.578125 4.28125 C -2.304688 4.09375 -2.210938 4.023438 -2.296875 4.078125 C -1.742188 3.609375 -1.203125 3.109375 -0.671875 2.578125 C -0.140625 2.046875 0.359375 1.503906 0.828125 0.953125 C 1.503906 0.234375 2.210938 -0.535156 2.953125 -1.359375 C 3.691406 -2.191406 4.335938 -3.050781 4.890625 -3.9375 C 4.722656 -4.113281 4.578125 -4.367188 4.453125 -4.703125 C 4.109375 -5.554688 4.132812 -6.289062 4.53125 -6.90625 C 4.9375 -7.519531 5.507812 -7.890625 6.25 -8.015625 C 7 -8.140625 7.691406 -7.882812 8.328125 -7.25 C 8.710938 -7.082031 9.175781 -6.976562 9.71875 -6.9375 C 10.269531 -6.894531 10.78125 -6.851562 11.25 -6.8125 C 13.332031 -6.675781 15.410156 -6.675781 17.484375 -6.8125 C 18.242188 -6.8125 18.972656 -6.851562 19.671875 -6.9375 C 20.378906 -7.019531 21.007812 -6.984375 21.5625 -6.828125 C 22.113281 -6.679688 22.515625 -6.207031 22.765625 -5.40625 C 22.972656 -4.726562 22.789062 -4.175781 22.21875 -3.75 C 21.65625 -3.320312 20.882812 -2.992188 19.90625 -2.765625 C 18.925781 -2.535156 17.894531 -2.375 16.8125 -2.28125 C 15.738281 -2.195312 14.816406 -2.15625 14.046875 -2.15625 C 13.492188 -2.15625 12.625 -2.15625 11.4375 -2.15625 C 10.25 -2.15625 9.171875 -2.242188 8.203125 -2.421875 C 7.523438 -0.972656 6.65625 0.414062 5.59375 1.75 C 4.53125 3.082031 3.507812 4.320312 2.53125 5.46875 C 1.9375 6.144531 1.179688 6.925781 0.265625 7.8125 C -0.640625 8.707031 -1.617188 9.421875 -2.671875 9.953125 C -3.734375 10.484375 -4.859375 10.578125 -6.046875 10.234375 C -6.984375 9.898438 -7.617188 9.285156 -7.953125 8.390625 C -8.296875 7.503906 -8.253906 6.445312 -7.828125 5.21875 C -7.234375 3.351562 -6.332031 1.550781 -5.125 -0.1875 C -3.914062 -1.925781 -2.71875 -3.5625 -1.53125 -5.09375 C -0.6875 -6.144531 0.347656 -7.421875 1.578125 -8.921875 C 2.804688 -10.429688 4.140625 -12.023438 5.578125 -13.703125 C 7.023438 -15.378906 8.488281 -17.007812 9.96875 -18.59375 C 11.457031 -20.1875 12.859375 -21.578125 14.171875 -22.765625 C 14.765625 -23.359375 15.453125 -23.910156 16.234375 -24.421875 C 17.023438 -24.929688 17.757812 -25.125 18.4375 -25 C 19.539062 -24.832031 20.195312 -24.257812 20.40625 -23.28125 C 20.625 -22.300781 20.304688 -21.492188 19.453125 -20.859375 Z M 19.453125 -20.859375 "/></g></g></g></svg>